<?xml version="1.0" encoding="utf-8"?>
<!-- Generator: Adobe Illustrator 27.0.1, SVG Export Plug-In . SVG Version: 6.00 Build 0)  -->
<svg version="1.1" id="Layer_1" xmlns="http://www.w3.org/2000/svg" xmlns:xlink="http://www.w3.org/1999/xlink" x="0px" y="0px"
	 viewBox="0 0 23 24" style="enable-background:new 0 0 23 24;" xml:space="preserve">
<style type="text/css">
	.st0{fill:#FFFFFF;}
</style>
<path class="st0" d="M10.5,9.4v1h-1V12h1v4.7h2.1V12h1.4l0.2-1.6h-1.6V9.5c0-0.4,0-0.6,0.7-0.6h0.9V7.3h-1.4
	C11,7.3,10.5,8.1,10.5,9.4z"/>
<path class="st0" d="M20.9,0.5H2.1C0.9,0.5,0,1.4,0,2.6v18.8c0,1.2,0.9,2.1,2.1,2.1h18.8c1.2,0,2.1-0.9,2.1-2.1V2.6
	C23,1.4,22.1,0.5,20.9,0.5z M22,21.4c0,0.6-0.5,1-1,1H2.1c-0.6,0-1-0.5-1-1V2.6c0-0.6,0.5-1,1-1h18.8c0.6,0,1,0.5,1,1V21.4z"/>
</svg>
