<svg width="23" height="24" viewBox="0 0 23 24" fill="none" xmlns="http://www.w3.org/2000/svg">
<path d="M10.4537 9.38585V10.4313H9.4082V11.9995H10.4537V16.704H12.5446V11.9995H13.935L14.1127 10.4313H12.5446V9.51653C12.5446 9.09314 12.5864 8.86836 13.2398 8.86836H14.1127V7.29492H12.7118C11.0391 7.29497 10.4537 8.07903 10.4537 9.38585Z" fill="#293137"/>
<path d="M20.9091 0.5H2.09089C0.936127 0.5 0 1.43613 0 2.59089V21.4091C0 22.5639 0.936127 23.5 2.09089 23.5H20.9091C22.0639 23.5 23 22.5639 23 21.4091V2.59089C23 1.43613 22.0639 0.5 20.9091 0.5ZM21.9545 21.4091C21.9545 21.9865 21.4864 22.4546 20.9091 22.4546H2.09089C1.51351 22.4546 1.04542 21.9865 1.04542 21.4091V2.59089C1.04542 2.01351 1.51351 1.54542 2.09089 1.54542H20.9091C21.4864 1.54542 21.9545 2.01351 21.9545 2.59089V21.4091Z" fill="#293137"/>
</svg>
