<?xml version="1.0" encoding="utf-8"?>
<!-- Generator: Adobe Illustrator 27.0.1, SVG Export Plug-In . SVG Version: 6.00 Build 0)  -->
<svg version="1.1" id="Layer_1" xmlns="http://www.w3.org/2000/svg" xmlns:xlink="http://www.w3.org/1999/xlink" x="0px" y="0px"
	 viewBox="0 0 120 117.9" style="enable-background:new 0 0 120 117.9;" xml:space="preserve">
<style type="text/css">
	.st0{fill:#FFFFFF;}
	svg{filter: drop-shadow(0 5px 16px rgba(0 0 0 / 0.1));}
</style>
<path class="st0" d="M77.3,81.2l0.1-0.2l0.1-0.1c0.5-0.6,1-1.3,1.3-2l7.6-14.1c0.4-0.8,0.8-1.6,1-2.5c0.7-2.4,0.7-5,0-7.4
	c-0.3-0.9-0.6-1.7-1-2.5l-7.6-14.1c-0.4-0.7-0.8-1.4-1.3-2l-0.1-0.1L77.3,36c-2.5-2.9-6.2-4.6-10.1-4.6h-22
	c-7.3,0-13.2,5.9-13.2,13.2v28.1c0,7.3,5.9,13.2,13.2,13.2h22C71.1,85.9,74.8,84.2,77.3,81.2L77.3,81.2z"/>
</svg>
