<svg width="56" height="55" viewBox="0 0 56 55" fill="none" xmlns="http://www.w3.org/2000/svg">
<path d="M46.398 47.3452C46.0706 47.9559 45.6582 48.5604 45.1946 49.1604L44.9283 49.476C42.5025 52.3511 38.9557 54 35.1959 54L13.2182 54C6.19899 54 0.499998 48.3107 0.499998 41.3074L0.499999 13.1926C0.5 6.18934 6.19899 0.499998 13.2182 0.499998L35.196 0.499999C38.9545 0.499999 42.5003 2.14785 44.9261 5.02129L45.0638 5.18932L45.1251 5.26583L45.5153 4.95312L45.1251 5.26583C45.6129 5.87437 46.052 6.52508 46.398 7.17054L46.3985 7.17162L53.9765 21.229L53.9769 21.2297C54.3846 21.9833 54.7184 22.8001 54.9772 23.6658C55.6744 26.0263 55.6741 28.4745 54.9773 30.8181C54.7185 31.684 54.3847 32.5009 53.9769 33.2546L53.9763 33.2556L46.3983 47.3445L46.398 47.3452Z" stroke="#CBCBCB"/>
</svg>
