<svg width="46" height="45" viewBox="0 0 46 45" fill="none" xmlns="http://www.w3.org/2000/svg">
<path d="M37.2192 41.131L37.3357 40.9881L37.3876 40.9232C37.8016 40.3909 38.1769 39.8456 38.4746 39.2874L44.6994 27.6544C45.0488 27.0052 45.3335 26.3041 45.5535 25.564C46.1488 23.5517 46.1488 21.4483 45.5535 19.423C45.3335 18.6829 45.0488 17.9818 44.6994 17.3327L38.4746 5.72562C38.1769 5.16734 37.8016 4.60906 37.3876 4.08973L37.3357 4.02481L37.2193 3.882C35.1487 1.41517 32.1204 9.34236e-07 28.911 7.93219e-07L10.8578 0C4.86594 -2.63271e-07 1.27089e-06 4.88171 1.00949e-06 10.893L0 34.107C-2.61404e-07 40.1183 4.86594 45 10.8578 45H28.9109C32.1204 45 35.1487 43.5849 37.2192 41.118V41.131Z" fill="#EF8C5E"/>
<path fill-rule="evenodd" clip-rule="evenodd" d="M31.0698 15.7963C31.6606 16.3771 31.6688 17.3268 31.088 17.9176L19.7183 29.485C18.9346 30.2824 17.6494 30.2824 16.8656 29.485L11.0515 23.5698C10.4708 22.9789 10.4789 22.0292 11.0698 21.4485V21.4485C11.6606 20.8678 12.6103 20.876 13.191 21.4668L18.292 26.6565L28.9485 15.8146C29.5292 15.2238 30.4789 15.2156 31.0698 15.7963V15.7963Z" fill="white"/>
</svg>
