<svg width="46" height="45" viewBox="0 0 46 45" fill="none" xmlns="http://www.w3.org/2000/svg">
<path d="M37.2192 41.131L37.3357 40.9881L37.3876 40.9232C37.8016 40.3909 38.1769 39.8456 38.4746 39.2874L44.6994 27.6544C45.0488 27.0052 45.3335 26.3041 45.5535 25.564C46.1488 23.5517 46.1488 21.4483 45.5535 19.423C45.3335 18.6829 45.0488 17.9818 44.6994 17.3327L38.4746 5.72562C38.1769 5.16734 37.8016 4.60906 37.3876 4.08973L37.3357 4.02481L37.2193 3.882C35.1487 1.41517 32.1204 9.34236e-07 28.911 7.93219e-07L10.8578 0C4.86594 -2.63271e-07 1.27089e-06 4.88171 1.00949e-06 10.893L0 34.107C-2.61404e-07 40.1183 4.86594 45 10.8578 45H28.9109C32.1204 45 35.1487 43.5849 37.2192 41.118V41.131Z" fill="#C8102E"/>
<path fill-rule="evenodd" clip-rule="evenodd" d="M28.757 16.0017C29.0808 15.6778 29.0808 15.1527 28.757 14.8288C28.4331 14.505 27.908 14.505 27.5841 14.8288L21.2928 21.1201L15.0017 14.829C14.6778 14.5051 14.1527 14.5051 13.8288 14.829C13.505 15.1528 13.505 15.678 13.8288 16.0018L20.12 22.293L13.8288 28.5841C13.505 28.908 13.505 29.4331 13.8288 29.757C14.1527 30.0808 14.6778 30.0808 15.0017 29.757L21.2928 23.4658L27.5841 29.7571C27.908 30.081 28.4331 30.081 28.757 29.7571C29.0808 29.4332 29.0808 28.9081 28.757 28.5842L22.4657 22.293L28.757 16.0017Z" fill="white"/>
</svg>
