<?xml version="1.0" encoding="utf-8"?>
<!-- Generator: Adobe Illustrator 27.0.1, SVG Export Plug-In . SVG Version: 6.00 Build 0)  -->
<svg version="1.1" id="Layer_1" xmlns="http://www.w3.org/2000/svg" xmlns:xlink="http://www.w3.org/1999/xlink" x="0px" y="0px"
	 viewBox="0 0 56 55" style="enable-background:new 0 0 56 55;" xml:space="preserve">
<style type="text/css">
	.st0{fill:#D77D54;}
</style>
<path class="st0" d="M45.3,49.8l0.1-0.2l0.1-0.1c0.5-0.6,1-1.3,1.3-2l7.6-14.1c0.4-0.8,0.8-1.6,1-2.5c0.7-2.4,0.7-5,0-7.4
	c-0.3-0.9-0.6-1.7-1-2.5L46.8,6.9c-0.4-0.7-0.8-1.4-1.3-2l-0.1-0.1l-0.1-0.2C42.8,1.7,39.1,0,35.2,0l-22,0C5.9,0,0,5.9,0,13.2
	l0,28.1c0,7.3,5.9,13.2,13.2,13.2h22C39.1,54.5,42.8,52.8,45.3,49.8L45.3,49.8z"/>
</svg>
