<?xml version="1.0" encoding="utf-8"?>
<!-- Generator: Adobe Illustrator 27.0.1, SVG Export Plug-In . SVG Version: 6.00 Build 0)  -->
<svg version="1.1" id="Layer_1" xmlns="http://www.w3.org/2000/svg" xmlns:xlink="http://www.w3.org/1999/xlink" x="0px" y="0px"
	 viewBox="0 0 56 55" style="enable-background:new 0 0 56 55;" xml:space="preserve">
<style type="text/css">
	.st0{fill:#293137;}
</style>
<path class="st0" d="M5.4,44.6l0.2,0.1l0.1,0.1c0.6,0.5,1.3,1,2,1.3l14.1,7.6c0.8,0.4,1.6,0.8,2.5,1c2.4,0.7,5,0.7,7.4,0
	c0.9-0.3,1.7-0.6,2.5-1l14.1-7.6c0.7-0.4,1.4-0.8,2-1.3l0.1-0.1l0.2-0.1c3-2.5,4.7-6.2,4.7-10.1v-22c0-7.3-5.9-13.2-13.2-13.2
	l-28.1,0C6.7-0.8,0.8,5.2,0.8,12.5v22C0.8,38.4,2.5,42,5.4,44.6L5.4,44.6z"/>
</svg>
