<svg width="56" height="55" viewBox="0 0 56 55" fill="none" xmlns="http://www.w3.org/2000/svg">
<path d="M45.3104 49.8142L45.4522 49.6412L45.5153 49.5626C46.0194 48.9179 46.4763 48.2575 46.8387 47.5814L54.4167 33.4925C54.842 32.7063 55.1886 31.8572 55.4565 30.9609C56.1812 28.5237 56.1812 25.9763 55.4565 23.5234C55.1886 22.6271 54.842 21.778 54.4167 20.9918L46.8387 6.93436C46.4763 6.25822 46.0194 5.58208 45.5153 4.95312L45.4522 4.87449L45.3105 4.70153C42.7897 1.71393 39.1031 -7.38587e-07 35.196 -9.09374e-07L13.2182 -1.87005e-06C5.92376 -2.1889e-06 1.25364e-06 5.91229 9.35411e-07 13.1926L-2.93528e-07 41.3074C-6.11759e-07 48.5877 5.92376 54.5 13.2182 54.5L35.1959 54.5C39.1031 54.5 42.7897 52.7861 45.3104 49.7985L45.3104 49.8142Z" fill="white"/>
</svg>
