<svg width="9" height="20" viewBox="0 0 9 20" fill="none" xmlns="http://www.w3.org/2000/svg">
<path d="M8.10688 10.3578C8.10688 10.5846 8.03738 10.8115 7.91004 10.9816L2.12454 19.49C1.91627 19.7964 1.569 20.0006 1.16411 20.0006H1.28007C0.643595 20.0006 0.122803 19.49 0.122803 18.8662C0.122803 18.6391 0.192298 18.4123 0.319636 18.2422L5.67715 10.3578L0.319636 2.47323C0.192298 2.3031 0.122803 2.07627 0.122803 1.84943C0.122803 1.22543 0.643595 0.714844 1.28007 0.714844L1.16411 0.714844C1.569 0.714844 1.91627 0.919036 2.12454 1.22543L7.91004 9.7338C8.03738 9.90393 8.10688 10.1308 8.10688 10.3578Z" fill="white"/>
</svg>
