<svg width="20" height="8" viewBox="0 0 20 8" fill="none" xmlns="http://www.w3.org/2000/svg">
<path d="M9.64281 7.98407C9.41597 7.98407 9.18914 7.91458 9.01901 7.78724L0.510637 2.00174C0.204245 1.79346 5.15157e-05 1.4462 5.15108e-05 1.0413L5.15122e-05 1.15727C5.15046e-05 0.520793 0.510637 2.23902e-07 1.13443 2.16463e-07C1.36147 2.13756e-07 1.58831 0.0694957 1.75844 0.196834L9.64281 5.55435L17.5274 0.196833C17.6975 0.0694955 17.9243 1.62348e-08 18.1512 1.35298e-08C18.7752 6.08867e-09 19.2858 0.520793 19.2858 1.15727L19.2858 1.0413C19.2858 1.4462 19.0816 1.79346 18.7752 2.00174L10.2668 7.78724C10.0967 7.91458 9.86985 7.98407 9.64281 7.98407Z" fill="#5B5B5B"/>
</svg>
