<svg width="9" height="20" viewBox="0 0 9 20" fill="none" xmlns="http://www.w3.org/2000/svg">
<path d="M0.12286 10.357C0.12286 10.1302 0.192355 9.90337 0.319693 9.73324L6.1052 1.22487C6.31347 0.918478 6.66074 0.714285 7.06563 0.714285L6.94967 0.714285C7.58614 0.714285 8.10694 1.22487 8.10694 1.84867C8.10694 2.07571 8.03744 2.30254 7.9101 2.47267L2.55259 10.357L7.9101 18.2416C8.03744 18.4117 8.10693 18.6386 8.10693 18.8654C8.10693 19.4894 7.58614 20 6.94966 20L7.06563 20C6.66073 20 6.31347 19.7958 6.1052 19.4894L0.319693 10.981C0.192355 10.8109 0.12286 10.5841 0.12286 10.357Z" fill="white"/>
</svg>
