<?xml version="1.0" encoding="utf-8"?>
<!-- Generator: Adobe Illustrator 27.0.1, SVG Export Plug-In . SVG Version: 6.00 Build 0)  -->
<svg version="1.1" id="Layer_1" xmlns="http://www.w3.org/2000/svg" xmlns:xlink="http://www.w3.org/1999/xlink" x="0px" y="0px"
	 viewBox="0 0 23 24" style="enable-background:new 0 0 23 24;" xml:space="preserve">
<style type="text/css">
	.st0{fill:#FFFFFF;}
</style>
<path class="st0" d="M14.6,6.8H8.4c-1.2,0-2.1,0.9-2.1,2.1v6.3c0,1.2,0.9,2.1,2.1,2.1h6.3c1.2,0,2.1-0.9,2.1-2.1V8.9
	C16.7,7.7,15.8,6.8,14.6,6.8z M13.6,8.3h1.6v1.6h-1.6V8.3z M11.5,9.9c1.2,0,2.1,0.9,2.1,2.1c0,1.2-0.9,2.1-2.1,2.1
	c-1.2,0-2.1-0.9-2.1-2.1C9.4,10.8,10.3,9.9,11.5,9.9z M15.7,15.1c0,0.6-0.5,1-1,1H8.4c-0.6,0-1-0.5-1-1v-3.7h1.1
	c-0.3,1.7,0.8,3.3,2.5,3.7c1.7,0.3,3.3-0.8,3.7-2.5c0-0.2,0.1-0.4,0.1-0.6c0-0.2,0-0.4-0.1-0.5h1.1V15.1L15.7,15.1z"/>
<path class="st0" d="M20.9,0.5H2.1C0.9,0.5,0,1.4,0,2.6v18.8c0,1.2,0.9,2.1,2.1,2.1h18.8c1.2,0,2.1-0.9,2.1-2.1V2.6
	C23,1.4,22.1,0.5,20.9,0.5z M22,21.4c0,0.6-0.5,1-1,1H2.1c-0.6,0-1-0.5-1-1V2.6c0-0.6,0.5-1,1-1h18.8c0.6,0,1,0.5,1,1V21.4z"/>
</svg>
