<svg width="23" height="24" viewBox="0 0 23 24" fill="none" xmlns="http://www.w3.org/2000/svg">
<path d="M14.637 6.77344H8.36433C7.20957 6.77344 6.27344 7.70956 6.27344 8.86433V15.137C6.27344 16.2918 7.20957 17.2279 8.36433 17.2279H14.637C15.7918 17.2279 16.7279 16.2918 16.7279 15.137V8.86437C16.728 7.70956 15.7918 6.77344 14.637 6.77344ZM13.5916 8.34162H15.1597V9.90979H13.5916V8.34162ZM11.5007 9.90984C12.6554 9.90984 13.5916 10.846 13.5916 12.0007C13.5916 13.1555 12.6554 14.0916 11.5007 14.0916C10.3459 14.0916 9.40979 13.1555 9.40979 12.0007C9.40979 10.846 10.3459 9.90984 11.5007 9.90984ZM15.6825 15.1371C15.6825 15.7145 15.2144 16.1825 14.637 16.1825H8.36433C7.78695 16.1825 7.31886 15.7145 7.31886 15.1371V11.478H8.41657C8.10266 13.1815 9.22907 14.8169 10.9326 15.1308C12.636 15.4448 14.2715 14.3183 14.5854 12.6149C14.6228 12.4123 14.64 12.2066 14.637 12.0007C14.6344 11.8253 14.617 11.6505 14.5847 11.478H15.6825V15.1371H15.6825Z" fill="#293137"/>
<path d="M20.9091 0.5H2.09089C0.936127 0.5 0 1.43613 0 2.59089V21.4091C0 22.5639 0.936127 23.5 2.09089 23.5H20.9091C22.0639 23.5 23 22.5639 23 21.4091V2.59089C23 1.43613 22.0639 0.5 20.9091 0.5ZM21.9545 21.4091C21.9545 21.9865 21.4864 22.4546 20.9091 22.4546H2.09089C1.51351 22.4546 1.04542 21.9865 1.04542 21.4091V2.59089C1.04542 2.01351 1.51351 1.54542 2.09089 1.54542H20.9091C21.4864 1.54542 21.9545 2.01351 21.9545 2.59089V21.4091Z" fill="#293137"/>
</svg>
