<?xml version="1.0" encoding="utf-8"?>
<!-- Generator: Adobe Illustrator 27.0.1, SVG Export Plug-In . SVG Version: 6.00 Build 0)  -->
<svg version="1.1" id="Layer_1" xmlns="http://www.w3.org/2000/svg" xmlns:xlink="http://www.w3.org/1999/xlink" x="0px" y="0px"
	 viewBox="0 0 23 24" style="enable-background:new 0 0 23 24;" xml:space="preserve">
<style type="text/css">
	.st0{fill:#FFFFFF;}
</style>
<path class="st0" d="M9.4,10.4H7.3v5.8h2.1V10.4z"/>
<path class="st0" d="M8.4,9.9c0.6,0,1-0.5,1-1c0-0.6-0.5-1-1-1c-0.6,0-1,0.5-1,1C7.3,9.4,7.8,9.9,8.4,9.9z"/>
<path class="st0" d="M20.9,0.5H2.1C0.9,0.5,0,1.4,0,2.6v18.8c0,1.2,0.9,2.1,2.1,2.1h18.8c1.2,0,2.1-0.9,2.1-2.1V2.6
	C23,1.4,22.1,0.5,20.9,0.5z M22,21.4c0,0.6-0.5,1-1,1H2.1c-0.6,0-1-0.5-1-1V2.6c0-0.6,0.5-1,1-1h18.8c0.6,0,1,0.5,1,1V21.4z"/>
<path class="st0" d="M14.3,10.4c-1.6,0-1.8,0.9-1.8,0.9v-0.9h-2.1v5.8h2.1V13c0,0,0-1,0.9-1c0.5,0,0.7,0.5,0.7,1v3.1h2.1V13
	C16.2,11.4,15.5,10.4,14.3,10.4z"/>
</svg>
