<svg width="23" height="24" viewBox="0 0 23 24" fill="none" xmlns="http://www.w3.org/2000/svg">
<path d="M9.40925 10.4316H7.31836V16.1816H9.40925V10.4316Z" fill="#293137"/>
<path d="M8.36383 9.90929C8.94122 9.90929 9.40929 9.44122 9.40929 8.86383C9.40929 8.28643 8.94122 7.81836 8.36383 7.81836C7.78643 7.81836 7.31836 8.28643 7.31836 8.86383C7.31836 9.44122 7.78643 9.90929 8.36383 9.90929Z" fill="#293137"/>
<path d="M20.9091 0.5H2.09089C0.936127 0.5 0 1.43613 0 2.59089V21.4091C0 22.5639 0.936127 23.5 2.09089 23.5H20.9091C22.0639 23.5 23 22.5639 23 21.4091V2.59089C23 1.43613 22.0639 0.5 20.9091 0.5ZM21.9545 21.4091C21.9545 21.9865 21.4864 22.4546 20.9091 22.4546H2.09089C1.51351 22.4546 1.04542 21.9865 1.04542 21.4091V2.59089C1.04542 2.01351 1.51351 1.54542 2.09089 1.54542H20.9091C21.4864 1.54542 21.9545 2.01351 21.9545 2.59089V21.4091Z" fill="#293137"/>
<path d="M14.3023 10.4316C12.7341 10.4316 12.546 11.3621 12.546 11.3621V10.4316H10.4551V16.1816H12.546V13.0453C12.546 13.0453 12.546 11.9998 13.4346 11.9998C13.9573 11.9998 14.1141 12.4703 14.1141 13.0453V16.1816H16.205V13.0453C16.205 11.4091 15.4941 10.4316 14.3023 10.4316Z" fill="#293137"/>
</svg>
