<?xml version="1.0" encoding="utf-8"?>
<!-- Generator: Adobe Illustrator 27.0.0, SVG Export Plug-In . SVG Version: 6.00 Build 0)  -->
<svg version="1.1" id="Layer_1" xmlns="http://www.w3.org/2000/svg" xmlns:xlink="http://www.w3.org/1999/xlink" x="0px" y="0px"
	 viewBox="0 0 173.3 25" style="enable-background:new 0 0 173.3 25;" xml:space="preserve">
<style type="text/css">
	.st0{fill:#293137;}
	.st1{fill:#EF8C5E;}
</style>
<path class="st0" d="M127.6,8.7c-2.1,0-3.8,0.7-5,2.2c-1.2,1.4-1.8,3.4-1.8,5.9c0,1.6,0.3,3,0.8,4.2c0.6,1.2,1.4,2.2,2.4,2.9
	c1,0.7,2.2,1,3.6,1c2.1,0,3.8-0.7,5.1-2.2c1.2-1.4,1.8-3.4,1.8-5.9s-0.6-4.4-1.8-5.9C131.4,9.4,129.7,8.7,127.6,8.7L127.6,8.7z
	 M132.3,16.7c0,1.9-0.4,3.5-1.2,4.5s-1.9,1.6-3.4,1.6c-1.5,0-2.6-0.5-3.4-1.6s-1.2-2.6-1.2-4.5s0.4-3.5,1.2-4.5
	c0.8-1,1.9-1.5,3.4-1.5c1.5,0,2.6,0.5,3.4,1.5C131.8,13.3,132.3,14.8,132.3,16.7L132.3,16.7z"/>
<path class="st0" d="M37,3.3c-3.2,0-4.8,1.8-4.8,5.5v15.8l0.2,0.2h0.8c0.7,0,1.3-0.6,1.3-1.3V11.6l0.2-0.2H38l0.2-0.2V9.9L38,9.7
	h-3.4l-0.2-0.2V8.7c0-1.3,0.2-2.2,0.6-2.8C35.4,5.3,36,5,36.9,5c0.6,0,1.3,0.1,2.1,0.4l0.2-0.1l0.5-1.5l-0.1-0.2
	C38.6,3.4,37.7,3.2,37,3.3L37,3.3z"/>
<path class="st0" d="M51.2,9.4L51,9.6v9.6c0,1.2-0.3,2.1-0.8,2.7c-0.6,0.6-1.4,0.9-2.6,0.9H47c-1.2,0-2-0.3-2.6-0.9
	c-0.5-0.6-0.8-1.5-0.8-2.7v-8.4c0-0.7-0.6-1.3-1.3-1.3h-0.8l-0.2,0.2v9.7c0,1.9,0.4,3.3,1.3,4.2c0.2,0.2,0.4,0.3,0.6,0.5
	c0.9,0.5,2,0.8,3.4,0.8h1.2c1.4,0,2.6-0.3,3.4-0.8c0.2-0.1,0.4-0.3,0.6-0.5c0.9-0.9,1.3-2.3,1.3-4.2V9.6l-0.2-0.2
	C52.9,9.4,51.2,9.4,51.2,9.4z"/>
<path class="st0" d="M77.4,9.6l-0.2-0.2h-1.9l-0.2,0.2v3.8v5.7c0,1.2-0.3,2.1-0.8,2.7c-0.1,0.1-0.2,0.2-0.3,0.3
	c-0.4,0.3-1,0.5-1.6,0.6c-0.2,0-0.4,0-0.6,0h-0.6c-0.4,0-0.7,0-1-0.1c-0.6-0.1-1-0.3-1.4-0.6c-0.1-0.1-0.2-0.1-0.2-0.2
	c-0.6-0.6-0.8-1.5-0.8-2.7v-8.4v-0.1v-0.3c-0.1-0.5-0.6-0.9-1.1-0.9h-1l-0.2,0.2v9.7c0,1.9,0.4,3.3,1.3,4.2c0.1,0.1,0.2,0.2,0.3,0.3
	c0.1,0.1,0.2,0.1,0.3,0.2c0.6,0.4,1.4,0.6,2.3,0.8c0.4,0,0.8,0.1,1.2,0.1H72c0.4,0,0.8,0,1.2-0.1c0.9-0.1,1.7-0.4,2.3-0.8
	c0.1-0.1,0.2-0.1,0.2-0.2c0.1-0.1,0.2-0.2,0.4-0.3c0.9-0.9,1.3-2.3,1.3-4.2V9.6L77.4,9.6z"/>
<path class="st0" d="M61.7,22.8h-0.2c-0.2,0-0.4,0-0.6,0c-0.7,0-1.3-0.3-1.7-0.7c-0.4-0.5-0.6-1.2-0.6-2.1v-8.7l0.2-0.2h4l0.2-0.2
	V9.6l-0.2-0.2h-4l-0.2-0.2V6.1l-0.2-0.2h-1.1C56.8,6,56.4,6.5,56.4,7v13.1c0,0.8,0.1,1.4,0.3,2c0.3,1,0.9,1.7,1.7,2.1
	c0.6,0.3,1.4,0.5,2.3,0.5c0.4,0,0.8,0,1.3-0.1l0,0c0.2-0.1,0.6-0.2,0.8-0.3l0,0l0.2-0.1c0.2-0.2,0.4-0.4,0.4-0.8v-1.1
	C63.5,22.4,62.4,22.7,61.7,22.8L61.7,22.8z"/>
<path class="st0" d="M100.5,10.7c-0.5-0.6-1-1-1.7-1.3c-0.2-0.1-0.5-0.2-0.8-0.3c-0.6-0.2-1.2-0.3-2-0.3c-0.6,0-1.1,0.1-1.6,0.2
	c-0.8,0.2-1.6,0.5-2.2,1.1c-0.3,0.3-0.6,0.5-0.9,0.9c-1.2,1.4-1.8,3.3-1.8,5.8s0.6,4.3,1.9,5.6c1.1,1.2,2.6,1.9,4.4,2
	c0.2,0,0.5,0,0.7,0c0.4,0,0.8,0,1.2-0.1H98c0.2-0.1,0.6-0.2,0.8-0.3l0,0l0.2-0.1c0.2-0.2,0.4-0.4,0.4-0.8V22c0,0-0.1,0-0.4,0.1
	c-0.8,0.2-1.6,0.3-2.3,0.3c-0.2,0-0.5,0-0.7,0c-1.2-0.1-2.1-0.6-2.8-1.3c-0.4-0.5-0.8-1.1-1-1.8c-0.2-0.7-0.3-1.4-0.3-2.3h9.3
	c0.5-0.1,0.9-0.6,0.9-1.1v-0.3c0-1-0.1-1.9-0.4-2.7C101.5,12.1,101.1,11.3,100.5,10.7L100.5,10.7z M99.6,15.2H92
	c0-0.5,0.2-1.1,0.3-1.5c0.2-0.7,0.5-1.3,1-1.8c0.4-0.4,0.8-0.7,1.3-0.9c0.1-0.1,0.3-0.1,0.4-0.1c0.4-0.1,0.7-0.1,1.1-0.1
	s0.8,0,1.1,0.1c0.6,0.2,1.2,0.5,1.6,1c0.6,0.7,0.9,1.8,0.9,3.1L99.6,15.2L99.6,15.2z"/>
<path class="st0" d="M87.6,9.4c-0.1,0-0.5-0.2-1.9-0.2s-2.6,0.3-3.5,0.9c-0.2,0.1-0.4,0.3-0.6,0.4c-0.9,0.9-1.3,2.3-1.3,4.2v9.7
	l0.2,0.2h1.2c0.4-0.1,0.8-0.5,0.9-0.9l0,0v-8.8c0-1.2,0.3-2.1,0.8-2.7C84,11.4,84.8,11,86,11s2.3,0.3,2.3,0.3v-1.1
	C88.3,9.8,88.2,9.6,87.6,9.4L87.6,9.4z"/>
<path class="st0" d="M112.3,8.9c-1.3,0-2.4,0.2-3.3,0.6c-0.6,0.3-1.1,0.7-1.6,1.2V3.8V3.5l-0.2-0.4L107,3l-0.4-0.1h-0.9l-0.3,0.3
	v21.7h2.1v-8.6c0-1.9,0.4-3.3,1.1-4.1s1.9-1.2,3.5-1.2c1.2,0,2,0.3,2.6,0.9c0.5,0.6,0.8,1.6,0.8,3v8.8v0.4l0.2,0.4l0.3,0.3l0.4,0.1
	h0.9l0.3-0.3v-9.8C117.6,10.9,115.8,8.9,112.3,8.9L112.3,8.9z"/>
<path class="st0" d="M152.9,8.9c-1.1,0-2.1,0.3-2.9,0.7c-0.7,0.4-1.2,0.9-1.7,1.5c-0.8-1.5-2.3-2.3-4.5-2.3c-1,0-1.8,0.2-2.6,0.7
	c-0.5,0.3-1,0.7-1.4,1.1l-0.1-0.8l-0.2-0.3l-0.3-0.3l-0.4-0.1H138l-0.3,0.3v15.3h2.1v-8.6c0-1.9,0.3-3.3,1-4.1
	c0.6-0.8,1.6-1.2,3-1.2c2,0,3,1.1,3,3.4v10.5h2.1v-9.1c0-1.7,0.3-2.9,1-3.7c0.6-0.8,1.6-1.1,3-1.1c1,0,1.8,0.3,2.3,0.9
	c0.5,0.6,0.7,1.6,0.7,2.9v9.8l0.3,0.3h0.7c0.3,0,0.5-0.1,0.8-0.3l0.1-0.2L158,24v-9.2c0-2-0.4-3.5-1.3-4.4
	C155.8,9.4,154.5,9,152.9,8.9L152.9,8.9z"/>
<path class="st0" d="M172.2,10.6c-1.1-1.3-2.5-2-4.4-2c-2,0-3.7,0.8-4.9,2.3s-1.8,3.5-1.8,5.9s0.6,4.4,1.9,5.8
	c1.3,1.4,3,2.1,5.3,2.1c0.9,0,1.7-0.1,2.4-0.2c0.6-0.1,1.2-0.3,1.9-0.6l0.3-0.2l0.2-0.2l0.1-0.4v-1.5l-0.9,0.3
	c-0.3,0.1-0.6,0.2-0.9,0.3c-0.4,0.1-0.8,0.2-1.1,0.3c-0.6,0.1-1.3,0.2-2.1,0.2c-1.6,0-2.8-0.5-3.6-1.5c-0.8-0.9-1.2-2.3-1.3-4h9.5
	l0.4-0.1l0.3-0.2c0.2-0.2,0.3-0.5,0.3-0.8v-0.4C173.8,13.7,173.3,11.9,172.2,10.6L172.2,10.6z M171.6,15.4h-8.2
	c0.2-1.5,0.6-2.6,1.4-3.4c0.8-0.9,1.8-1.3,3.1-1.3c1.2,0,2.1,0.4,2.7,1.3C171.2,12.8,171.6,13.9,171.6,15.4z"/>
<path class="st1" d="M22.2,21.5h-1.3c-0.2,0-0.4,0.2-0.4,0.4v1.3c0,0.9,0.7,1.7,1.6,1.7s1.6-0.8,1.6-1.7
	C23.8,22.3,23,21.5,22.2,21.5"/>
<path class="st1" d="M21.7,4.7L21.7,4.7c-0.4-0.3-0.7-0.5-1-0.7l-6.1-3.4c-0.3-0.2-0.7-0.3-1.1-0.5c-1.1-0.3-2.2-0.3-3.2,0
	C9.9,0.3,9.5,0.5,9.2,0.7L3,4C2.7,4.2,2.4,4.4,2.2,4.6l0,0L2,4.7C0.7,5.8,0,7.5,0,9.2V19c0,3.2,2.6,5.9,5.8,5.9h10.8
	c0.9,0,1.6-0.8,1.6-1.7v-1.3c0-0.2-0.2-0.4-0.4-0.4h-12c-1.4,0-2.5-1.1-2.5-2.5V9.2c0-0.9,0.5-1.8,1.3-2.2l6.1-3.4h0.1l0,0
	c0.7-0.3,1.4-0.3,2,0l0,0l0.1,0.1L19.2,7c0.8,0.4,1.3,1.3,1.3,2.2v8.5c0,0.9,0.7,1.7,1.6,1.7s1.6-0.8,1.6-1.7V9.2
	C23.8,7.5,23,5.9,21.7,4.7"/>
</svg>
