<svg width="23" height="23" viewBox="0 0 23 23" fill="none" xmlns="http://www.w3.org/2000/svg">
<g clip-path="url(#clip0_2641_28388)">
<path d="M11.04 9.37323H11.2544C11.7287 9.37323 12.114 8.99027 12.1169 8.51594V7.12026C12.1084 6.65208 11.7278 6.27622 11.2596 6.27344H11.0452C10.5709 6.27344 10.1856 6.6564 10.1827 7.13073V8.5264C10.1913 8.99458 10.5718 9.37049 11.04 9.37323ZM10.8257 7.06802C10.8258 6.88905 10.971 6.74399 11.15 6.74413C11.3288 6.74426 11.4737 6.88918 11.4739 7.06802V8.56823C11.4737 8.7472 11.3286 8.89225 11.1496 8.89211C10.9708 8.89198 10.8258 8.74706 10.8257 8.56823V7.06802Z" fill="#ECECEC"/>
<path d="M8.50484 9.31927H9.26276V7.65177L10.1253 5.28906H9.40916L8.88641 6.85724L8.36369 5.28906H7.58484L8.50484 7.65177V9.31927Z" fill="#ECECEC"/>
<path d="M13.1989 9.37323C13.504 9.34389 13.7899 9.21106 14.0091 8.99687V9.32098H14.6364V6.27348H14.0091V8.63619C14.0091 8.63619 13.7948 8.88708 13.5909 8.88708C13.3871 8.88708 13.3766 8.72505 13.3766 8.72505V6.27344H12.7128V8.95505C12.749 9.19556 12.9557 9.37336 13.1989 9.37323Z" fill="#ECECEC"/>
<path d="M20.9091 0H2.09089C0.936127 0 0 0.936127 0 2.09089V20.9091C0 22.0639 0.936127 23 2.09089 23H20.9091C22.0639 23 23 22.0639 23 20.9091V2.09089C23 0.936127 22.0639 0 20.9091 0ZM21.9545 20.9091C21.9545 21.4865 21.4864 21.9546 20.9091 21.9546H2.09089C1.51351 21.9546 1.04542 21.4865 1.04542 20.9091V2.09089C1.04542 1.51351 1.51351 1.04542 2.09089 1.04542H20.9091C21.4864 1.04542 21.9545 1.51351 21.9545 2.09089V20.9091Z" fill="#ECECEC"/>
<path d="M15.5773 13.2357C15.5773 13.2357 15.5773 12.875 15.2532 12.875H15.2271C14.903 12.875 14.903 13.2357 14.903 13.2357V13.7009H15.5773V13.2357Z" fill="#ECECEC"/>
<path d="M15.4947 10.0408C15.4856 10.0409 15.4765 10.0411 15.4675 10.0414C15.4675 10.0414 13.4863 9.93164 11.5 9.93164C9.5136 9.93164 7.53245 10.0362 7.53245 10.0362C6.66685 10.0073 5.94173 10.6856 5.91289 11.5512C5.9123 11.5689 5.91199 11.5867 5.91203 11.6044C5.81222 12.2619 5.75804 12.9256 5.75 13.5907C5.75737 14.2627 5.81154 14.9335 5.91203 15.598C5.91154 16.4641 6.61326 17.1666 7.47936 17.167C7.49706 17.167 7.5148 17.1668 7.5325 17.1662C7.5325 17.1662 9.48229 17.2707 11.5 17.2707C13.5177 17.2707 15.4675 17.1662 15.4675 17.1662C16.3331 17.1951 17.0582 16.5167 17.0871 15.6511C17.0877 15.6334 17.088 15.6157 17.0879 15.598C17.188 14.9334 17.2421 14.2627 17.25 13.5907C17.2433 12.9186 17.1891 12.2479 17.0879 11.5834C17.074 10.7175 16.3606 10.0268 15.4947 10.0408ZM9.15292 11.7925H8.3636V15.8594H7.58474V11.7925H6.79542V11.1234H9.1686L9.15292 11.7925ZM11.202 15.8594H10.5538V15.551C10.3314 15.7581 10.0463 15.885 9.7436 15.9116C9.50044 15.9167 9.29178 15.7395 9.25745 15.4987V12.3048H9.93178V15.2896C9.93178 15.2896 9.93178 15.4464 10.1461 15.4464C10.3604 15.4464 10.58 15.1903 10.58 15.1903V12.3048H11.2281L11.202 15.8594ZM13.7372 15.0858C13.7372 15.0858 13.7372 15.9116 13.1414 15.9116C12.8664 15.9141 12.6065 15.7861 12.4409 15.5666V15.8594H11.7404V11.1235H12.4409V12.6603C12.6202 12.4572 12.8713 12.3316 13.1414 12.3101C13.5752 12.3101 13.7372 12.6708 13.7372 13.136V15.0858ZM15.2531 15.3628C15.5772 15.3628 15.5772 15.0021 15.5772 15.0021V14.6362H16.2777V15.2007C16.184 15.6533 15.7657 15.9636 15.3054 15.9221C14.8286 15.965 14.3891 15.6617 14.26 15.2007V13.183C14.2745 12.6809 14.6933 12.2856 15.1955 12.3001C15.2323 12.3012 15.269 12.3045 15.3054 12.31C15.7713 12.2434 16.2029 12.5669 16.2696 13.0327C16.2768 13.0825 16.2795 13.1328 16.2777 13.183H16.2725V14.2285H14.9291V15.0021C14.9291 15.0021 14.9291 15.3628 15.2531 15.3628Z" fill="#ECECEC"/>
<path d="M12.7702 12.875H12.744C12.6181 12.8812 12.5005 12.94 12.4199 13.037V15.2011C12.5026 15.2926 12.6207 15.344 12.744 15.3422C13.0681 15.3422 13.0681 14.9816 13.0681 14.9816V13.2357C13.0681 13.2357 13.0368 12.875 12.7702 12.875Z" fill="#ECECEC"/>
</g>
<defs>
<clipPath id="clip0_2641_28388">
<rect width="23" height="23" fill="white"/>
</clipPath>
</defs>
</svg>
