<svg width="23" height="24" viewBox="0 0 23 24" fill="none" xmlns="http://www.w3.org/2000/svg">
<path d="M20.9091 0.5H2.09089C0.936127 0.5 0 1.43613 0 2.59089V21.4091C0 22.5639 0.936127 23.5 2.09089 23.5H20.9091C22.0639 23.5 23 22.5639 23 21.4091V2.59089C23 1.43613 22.0639 0.5 20.9091 0.5ZM21.9545 21.4091C21.9545 21.9865 21.4864 22.4546 20.9091 22.4546H2.09089C1.51351 22.4546 1.04542 21.9865 1.04542 21.4091V2.59089C1.04542 2.01351 1.51351 1.54542 2.09089 1.54542H20.9091C21.4864 1.54542 21.9545 2.01351 21.9545 2.59089V21.4091Z" fill="#293137"/>
<path fill-rule="evenodd" clip-rule="evenodd" d="M8.51699 9.16662H7.50642V6.94327L6.27975 3.79297H7.31823L8.01518 5.88389L8.71219 3.79297H9.667L8.51699 6.94327V9.16662ZM11.1726 9.23628H10.8868C10.2624 9.23263 9.75513 8.73141 9.74375 8.10717V6.24626C9.74758 5.61381 10.2613 5.1032 10.8938 5.1032H11.1795C11.8039 5.10691 12.3113 5.60806 12.3226 6.2323V8.09322C12.3187 8.72566 11.805 9.23628 11.1726 9.23628ZM11.0334 5.73079C10.7948 5.73061 10.6012 5.92402 10.601 6.16264V8.16294C10.6012 8.40138 10.7944 8.59461 11.0329 8.59479C11.2715 8.59497 11.4651 8.40156 11.4653 8.16294V6.16264C11.4651 5.9242 11.2719 5.73097 11.0334 5.73079ZM13.7661 9.23628C14.1729 9.19717 14.5541 9.02005 14.8464 8.73447V9.16662H15.6828V5.10326H14.8464V8.25356C14.8464 8.25356 14.5606 8.58808 14.2888 8.58808C14.017 8.58808 14.003 8.37204 14.003 8.37204V5.1032H13.1179V8.6787C13.1662 8.99939 13.4418 9.23646 13.7661 9.23628ZM16.5049 13.9055C16.9369 13.9055 16.9369 14.3864 16.9369 14.3864V15.0066H16.0378V14.3864C16.0378 14.3864 16.0378 13.9055 16.47 13.9055H16.5049ZM16.993 10.1455C16.9809 10.1457 16.9688 10.146 16.9567 10.1464C16.9567 10.1464 14.3151 10 11.6667 10C9.01817 10 6.37662 10.1394 6.37662 10.1394C5.22248 10.1009 4.25564 11.0053 4.21718 12.1594C4.2164 12.183 4.21599 12.2067 4.21605 12.2303C4.08296 13.1071 4.01072 13.992 4 14.8788C4.00982 15.7748 4.08206 16.6691 4.21605 17.5552C4.21539 18.71 5.15103 19.6466 6.30582 19.6472C6.32942 19.6472 6.35308 19.6469 6.37668 19.6461C6.37668 19.6461 8.97642 19.7855 11.6667 19.7855C14.357 19.7855 16.9568 19.6461 16.9568 19.6461C18.1109 19.6846 19.0777 18.7802 19.1162 17.626C19.117 17.6024 19.1174 17.5788 19.1173 17.5552C19.2507 16.6691 19.3229 15.7748 19.3334 14.8788C19.3245 13.9827 19.2523 13.0883 19.1173 12.2024C19.0987 11.0478 18.1476 10.1269 16.993 10.1455ZM8.53726 12.4812H7.48482V17.9037H6.44634V12.4812H5.3939V11.589H8.55816L8.53726 12.4812ZM11.2694 17.9037H10.4051V17.4925C10.1086 17.7686 9.72841 17.9379 9.32483 17.9734C9.00062 17.9802 8.7224 17.7438 8.67664 17.4228V13.1643H9.57574V17.144C9.57574 17.144 9.57574 17.3531 9.8615 17.3531C10.1473 17.3531 10.44 17.0116 10.44 17.0116V13.1643H11.3042L11.2694 17.9037ZM14.6497 16.8722C14.6497 16.8722 14.6497 17.9734 13.8552 17.9734C13.4886 17.9767 13.1421 17.806 12.9212 17.5134V17.9037H11.9873V11.5891H12.9212V13.6382C13.1603 13.3674 13.4951 13.2 13.8552 13.1713C14.4337 13.1713 14.6497 13.6522 14.6497 14.2725V16.8722ZM16.6709 17.2416C17.1031 17.2416 17.1031 16.7607 17.1031 16.7607V16.2728H18.037V17.0255C17.912 17.6289 17.3544 18.0426 16.7406 17.9873C16.1049 18.0445 15.5188 17.6401 15.3467 17.0255V14.3352C15.3661 13.6656 15.9245 13.1386 16.594 13.158C16.6431 13.1595 16.6921 13.1638 16.7406 13.1712C17.3618 13.0823 17.9373 13.5138 18.0263 14.1348C18.0358 14.2011 18.0394 14.2682 18.037 14.3352H18.0301V15.7291H16.2388V16.7607C16.2388 16.7607 16.2388 17.2416 16.6709 17.2416ZM13.1582 13.9055H13.1931C13.5486 13.9055 13.5904 14.3864 13.5904 14.3864V16.7142C13.5904 16.7142 13.5904 17.1951 13.1582 17.1951C12.9938 17.1975 12.8363 17.1289 12.7261 17.0069V14.1215C12.8335 13.9921 12.9903 13.9137 13.1582 13.9055Z" fill="#293137"/>
</svg>
