<svg width="18" height="17" viewBox="0 0 18 17" fill="none" xmlns="http://www.w3.org/2000/svg">
<path d="M11.4223 0.996524C11.3326 0.649547 11.118 0.359486 10.818 0.179919C10.1987 -0.190835 9.40378 0.029885 9.04609 0.672195L8.84643 1.03068L8.64678 0.672141C8.28913 0.0299925 7.4943 -0.190835 6.8749 0.179865H6.87485C6.25544 0.550672 6.0425 1.37476 6.40009 2.01701L7.34861 3.72037L3.84874 10.0055H1.29713C0.581893 10.0055 0 10.6088 0 11.3504C0 12.0919 0.581893 12.6952 1.29713 12.6952H11.1481L9.65024 10.0055H6.84434L11.2927 2.01707C11.466 1.70597 11.512 1.3435 11.4223 0.996524Z" fill="white"/>
<path d="M16.3954 10.0099H13.8438L10.9431 4.80078L9.44531 7.49052L13.9492 15.5785C14.1224 15.8896 14.4021 16.1122 14.7368 16.2052C14.8486 16.2362 14.962 16.2516 15.0747 16.2516C15.2994 16.2516 15.5213 16.1905 15.7212 16.0708C16.3406 15.7 16.5535 14.8758 16.1959 14.2337L15.3416 12.6997H16.3954C17.1107 12.6997 17.6926 12.0964 17.6926 11.3548C17.6926 10.6133 17.1107 10.0099 16.3954 10.0099Z" fill="white"/>
<path d="M1.75187 13.7734L1.49675 14.2316C1.13916 14.8738 1.35215 15.6979 1.97155 16.0686C2.17531 16.1906 2.398 16.2486 2.61794 16.2485C3.06654 16.2485 3.50346 16.0073 3.74349 15.5764L4.74746 13.7734H1.75187Z" fill="white"/>
</svg>
