<svg width="15" height="16" viewBox="0 0 15 16" fill="none" xmlns="http://www.w3.org/2000/svg">
<path d="M2.9268 0.248683C2.31453 -0.0875616 1.59566 -0.0797872 0.987305 0.253542L8.11737 6.78893L10.5126 4.40898L2.9268 0.248683Z" fill="white"/>
<path d="M0.273857 0.925781C0.0997623 1.20858 0 1.53219 0 1.87524V13.6788C0 14.0111 0.0909597 14.328 0.255274 14.6049L7.42544 7.48061L0.273857 0.925781Z" fill="white"/>
<path d="M13.6881 6.15109L11.4033 4.89844L8.83594 7.44846L11.9824 10.3318L13.6891 9.39595C14.3033 9.05776 14.6711 8.45136 14.6711 7.77304C14.6701 7.09472 14.3033 6.48831 13.6881 6.15109Z" fill="white"/>
<path d="M8.14481 8.13281L0.955078 15.2766C1.26708 15.4534 1.6094 15.5467 1.95368 15.5467C2.28622 15.5467 2.62072 15.4631 2.92685 15.295L11.0809 10.8237L8.14481 8.13281Z" fill="white"/>
</svg>
