<svg width="16" height="16" viewBox="0 0 16 16" fill="none" xmlns="http://www.w3.org/2000/svg">
<path d="M3.57236 0.248683C2.96994 -0.0875616 2.26263 -0.0797872 1.66406 0.253542L8.67944 6.78893L11.0362 4.40898L3.57236 0.248683Z" fill="white"/>
<path d="M0.962811 0.925781C0.791517 1.20858 0.693359 1.53219 0.693359 1.87524V13.6788C0.693359 14.0111 0.782856 14.328 0.944527 14.6049L7.99936 7.48061L0.962811 0.925781Z" fill="white"/>
<path d="M14.1608 6.15109L11.9128 4.89844L9.38672 7.44846L12.4825 10.3318L14.1618 9.39595C14.7661 9.05776 15.128 8.45136 15.128 7.77304C15.127 7.09472 14.7661 6.48831 14.1608 6.15109Z" fill="white"/>
<path d="M8.70689 8.13281L1.63281 15.2766C1.9398 15.4534 2.27661 15.5467 2.61535 15.5467C2.94254 15.5467 3.27166 15.4631 3.57287 15.295L11.5958 10.8237L8.70689 8.13281Z" fill="white"/>
</svg>
