<svg width="19" height="17" viewBox="0 0 19 17" fill="none" xmlns="http://www.w3.org/2000/svg">
<path d="M12.0823 0.996524C11.9941 0.649547 11.7829 0.359486 11.4877 0.179919C10.8784 -0.190835 10.0963 0.029885 9.74432 0.672195L9.54788 1.03068L9.35144 0.672141C8.99955 0.0299925 8.2175 -0.190835 7.60806 0.179865H7.60801C6.99857 0.550672 6.78905 1.37476 7.14089 2.01701L8.07415 3.72037L4.63058 10.0055H2.12002C1.41628 10.0055 0.84375 10.6088 0.84375 11.3504C0.84375 12.0919 1.41628 12.6952 2.12002 12.6952H11.8125L10.3388 10.0055H7.57799L11.9548 2.01707C12.1253 1.70597 12.1706 1.3435 12.0823 0.996524Z" fill="white"/>
<path d="M16.9751 10.0099H14.4645L11.6104 4.80078L10.1367 7.49052L14.5681 15.5785C14.7386 15.8896 15.0137 16.1122 15.3431 16.2052C15.4531 16.2362 15.5646 16.2516 15.6755 16.2516C15.8967 16.2516 16.115 16.1905 16.3116 16.0708C16.9211 15.7 17.1306 14.8758 16.7787 14.2337L15.9382 12.6997H16.9751C17.6788 12.6997 18.2513 12.0964 18.2513 11.3548C18.2513 10.6133 17.6788 10.0099 16.9751 10.0099Z" fill="white"/>
<path d="M2.56627 13.7734L2.31525 14.2316C1.96341 14.8738 2.17297 15.6979 2.78241 16.0686C2.98289 16.1906 3.202 16.2486 3.4184 16.2485C3.85979 16.2485 4.28968 16.0073 4.52584 15.5764L5.51367 13.7734H2.56627Z" fill="white"/>
</svg>
