<svg width="20" height="9" viewBox="0 0 20 9" fill="none" xmlns="http://www.w3.org/2000/svg">
	<path d="M10.2423 8.63642C10.0155 8.63642 9.78862 8.56692 9.6185 8.43959L1.11012 2.65408C0.803732 2.44581 0.599539 2.09854 0.599539 1.69365V1.80961C0.599539 1.17314 1.11012 0.652344 1.73392 0.652344C1.96096 0.652344 2.1878 0.721839 2.35792 0.849177L10.2423 6.20669L18.1269 0.849177C18.297 0.721839 18.5238 0.652344 18.7507 0.652344C19.3747 0.652344 19.8853 1.17314 19.8853 1.80961L19.8853 1.69365C19.8853 2.09854 19.6811 2.44581 19.3747 2.65408L10.8663 8.43959C10.6962 8.56692 10.4693 8.63642 10.2423 8.63642Z" fill="#5B5B5B"/>
</svg>