<svg width="1122" height="1117" viewBox="0 0 1122 1117" fill="none" xmlns="http://www.w3.org/2000/svg">
<path d="M206.009 993.168L209.794 995.209L211.509 996.11C225.531 1003.26 239.686 1009.46 253.808 1013.82L548.169 1105.19C564.604 1110.34 581.959 1113.77 599.933 1115.54C648.799 1120.3 697.214 1110.99 741.293 1088.37C757.389 1080.04 772.311 1070.41 785.762 1059.51L1026.36 865.295C1037.94 855.994 1049.19 844.911 1059.37 833.109L1060.64 831.633L1063.43 828.328C1111.38 769.893 1131.02 694.134 1117.31 620.48L1040.21 206.177C1014.62 68.6696 881.472 -21.3961 743.1 5.20584L208.741 107.936C70.369 134.538 -21.2211 267.811 4.36797 405.318L81.4668 819.621C95.1732 893.275 140.681 956.509 206.308 993.111L206.009 993.168Z" fill="url(#paint0_linear_2592_43275)" fill-opacity="0.5"/>
<defs>
<linearGradient id="paint0_linear_2592_43275" x1="949.045" y1="1059.09" x2="385.614" y2="261.759" gradientUnits="userSpaceOnUse">
<stop stop-color="#34424D"/>
<stop offset="1" stop-color="#293137" stop-opacity="0"/>
</linearGradient>
</defs>
</svg>
