<svg width="1000" height="1008" viewBox="0 0 1000 1008" fill="none" xmlns="http://www.w3.org/2000/svg">
<path d="M0.353103 457.333L0.496592 460.963L0.579174 462.598C1.40961 475.866 2.98358 488.815 5.87515 500.937L65.7935 753.817C69.1068 767.956 74.0552 782.009 80.4689 795.787C97.9534 833.215 125.426 864.168 160.683 886.163C173.602 894.167 186.969 900.749 200.614 905.717L444.253 994.851C455.946 999.161 468.786 1002.45 481.692 1004.66L483.306 1004.94L486.893 1005.51C549.727 1014.64 612.983 995.733 660.433 953.618L927.339 716.723C1015.93 638.098 1024.1 502.405 945.584 413.94L642.365 72.3076C563.847 -16.1575 428.143 -24.1483 339.557 54.477L72.651 291.372C25.201 333.486 -1.08558 394.05 0.522701 457.524L0.353103 457.333Z" fill="url(#paint0_linear_2592_42895)" fill-opacity="0.8"/>
<defs>
<linearGradient id="paint0_linear_2592_42895" x1="270.852" y1="1023.65" x2="393.682" y2="539.756" gradientUnits="userSpaceOnUse">
<stop stop-color="#34424D"/>
<stop offset="1" stop-color="#293137" stop-opacity="0"/>
</linearGradient>
</defs>
</svg>
