<svg width="927" height="933" viewBox="0 0 927 933" fill="none" xmlns="http://www.w3.org/2000/svg">
<path d="M872.617 224.94L870.174 222.276L869.06 221.089C859.9 211.552 850.379 202.735 840.39 195.393L632.322 41.9762C620.716 33.375 607.925 25.8895 594.198 19.5555C556.863 2.38894 516.109 -3.44162 475.207 2.53168C460.255 4.76268 445.877 8.3612 432.326 13.3632L190.089 102.356C178.443 106.603 166.58 112.361 155.364 118.982L153.962 119.81L150.871 121.681C97.3065 155.149 61.4522 210.173 52.5142 272.647L2.238 624.063C-14.4487 740.698 66.5894 848.949 183.065 865.613L632.867 929.965C749.343 946.629 857.483 865.443 874.17 748.808L924.446 397.392C933.384 334.918 914.397 272.048 872.365 224.904L872.617 224.94Z" fill="url(#paint0_linear_2592_42893)" fill-opacity="0.5"/>
<defs>
<linearGradient id="paint0_linear_2592_42893" x1="770.653" y1="870.957" x2="456.8" y2="472.143" gradientUnits="userSpaceOnUse">
<stop stop-color="#34424D"/>
<stop offset="1" stop-color="#293137" stop-opacity="0"/>
</linearGradient>
</defs>
</svg>
