<svg width="1524" height="1563" viewBox="0 0 1524 1563" fill="none" xmlns="http://www.w3.org/2000/svg">
<path d="M72.0825 1154.04L75.6994 1158.69L77.3512 1160.77C90.9664 1177.47 105.242 1193 120.439 1206.14L436.94 1480.58C454.588 1495.96 474.27 1509.6 495.586 1521.42C553.569 1553.48 618.346 1567.05 684.719 1561.05C708.988 1558.78 732.491 1554.19 754.829 1547.18L1154.08 1422.72C1173.27 1416.79 1192.98 1408.37 1211.75 1398.46L1214.1 1397.22L1219.28 1394.41C1309.15 1344.01 1373.06 1256.15 1394.6 1153.36L1515.75 575.144C1555.96 383.236 1438.26 195.886 1253.13 157.095L538.178 7.29322C353.043 -31.4977 170.041 92.8485 129.831 284.757L8.67981 862.969C-12.8582 965.763 10.4044 1071.89 72.4824 1154.12L72.0825 1154.04Z" fill="url(#paint0_linear_2592_43073)" fill-opacity="0.7"/>
<defs>
<linearGradient id="paint0_linear_2592_43073" x1="437.953" y1="1324.23" x2="1101.19" y2="938.52" gradientUnits="userSpaceOnUse">
<stop stop-color="#34424D"/>
<stop offset="1" stop-color="#293137" stop-opacity="0"/>
</linearGradient>
</defs>
</svg>
